HIERARCHY
ROOT Hips
{
  OFFSET 0.0 0.0 0.0
  CHANNELS 6 Xposition Yposition Zposition Zrotation Yrotation Xrotation
  JOINT LHipJoint
  {
    OFFSET 0.0 0.0 0.0
    CHANNELS 3 Zrotation Yrotation Xrotation
    JOINT LeftUpLeg
    {
      OFFSET 1.363059998 -1.794630051 0.839290023
      CHANNELS 3 Zrotation Yrotation Xrotation
      JOINT LeftLeg
      {
        OFFSET 2.448110104 -6.726130009 0.0
        CHANNELS 3 Zrotation Yrotation Xrotation
        JOINT LeftFoot
        {
          OFFSET 2.562200069 -7.039589882 0.0
          CHANNELS 3 Zrotation Yrotation Xrotation
          JOINT LeftToeBase
          {
            OFFSET 0.157639995 -0.433109999 2.322550058
            CHANNELS 3 Zrotation Yrotation Xrotation
            End Site
            {
              OFFSET 0.0 -0.0 1.189659953
            }
          }
        }
      }
    }
  }
  JOINT RHipJoint
  {
    OFFSET 0.0 0.0 0.0
    CHANNELS 3 Zrotation Yrotation Xrotation
    JOINT RightUpLeg
    {
      OFFSET -1.305520058 -1.794630051 0.839290023
      CHANNELS 3 Zrotation Yrotation Xrotation
      JOINT RightLeg
      {
        OFFSET -2.54253006 -6.985549927 0.0
        CHANNELS 3 Zrotation Yrotation Xrotation
        JOINT RightFoot
        {
          OFFSET -2.568259954 -7.056230068 0.0
          CHANNELS 3 Zrotation Yrotation Xrotation
          JOINT RightToeBase
          {
            OFFSET -0.164729998 -0.452589989 2.363149881
            CHANNELS 3 Zrotation Yrotation Xrotation
            End Site
            {
              OFFSET -0.0 -0.0 1.21081996
            }
          }
        }
      }
    }
  }
  JOINT LowerBack
  {
    OFFSET 0.0 0.0 0.0
    CHANNELS 3 Zrotation Yrotation Xrotation
    JOINT Spine
    {
      OFFSET 0.028270001 2.035589933 -0.193379998
      CHANNELS 3 Zrotation Yrotation Xrotation
      JOINT Spine1
      {
        OFFSET 0.05672 2.04885006 -0.042750001
        CHANNELS 3 Zrotation Yrotation Xrotation
        JOINT Neck
        {
          OFFSET 0.0 0.0 0.0
          CHANNELS 3 Zrotation Yrotation Xrotation
          JOINT Neck1
          {
            OFFSET -0.054170001 1.74624002 0.172020003
            CHANNELS 3 Zrotation Yrotation Xrotation
            JOINT Head
            {
              OFFSET 0.10407 1.761360049 -0.123970002
              CHANNELS 3 Zrotation Yrotation Xrotation
              End Site
              {
                OFFSET 0.0372 1.770439982 -0.062410001
              }
            }
          }
        }
        JOINT LeftShoulder
        {
          OFFSET 0.0 0.0 0.0
          CHANNELS 3 Zrotation Yrotation Xrotation
          JOINT LeftArm
          {
            OFFSET 3.362410069 1.200889945 -0.311210006
            CHANNELS 3 Zrotation Yrotation Xrotation
            JOINT LeftForeArm
            {
              OFFSET 4.982999802 -0.0 -0.0
              CHANNELS 3 Zrotation Yrotation Xrotation
              JOINT LeftHand
              {
                OFFSET 3.483560085 -0.0 -0.0
                CHANNELS 3 Zrotation Yrotation Xrotation
                JOINT LeftFingerBase
                {
                  OFFSET 0.0 0.0 0.0
                  CHANNELS 3 Zrotation Yrotation Xrotation
                  JOINT LeftHandIndex1
                  {
                    OFFSET 0.715260029 -0.0 -0.0
                    CHANNELS 3 Zrotation Yrotation Xrotation
                    End Site
                    {
                      OFFSET 0.576659977 -0.0 -0.0
                    }
                  }
                }
                JOINT LThumb
                {
                  OFFSET 0.0 0.0 0.0
                  CHANNELS 3 Zrotation Yrotation Xrotation
                  End Site
                  {
                    OFFSET 0.585470021 -0.0 0.585470021
                  }
                }
              }
            }
          }
        }
        JOINT RightShoulder
        {
          OFFSET 0.0 0.0 0.0
          CHANNELS 3 Zrotation Yrotation Xrotation
          JOINT RightArm
          {
            OFFSET -3.136600018 1.374050021 -0.404650003
            CHANNELS 3 Zrotation Yrotation Xrotation
            JOINT RightForeArm
            {
              OFFSET -5.241899967 -0.0 -0.0
              CHANNELS 3 Zrotation Yrotation Xrotation
              JOINT RightHand
              {
                OFFSET -3.444169998 -0.0 -0.0
                CHANNELS 3 Zrotation Yrotation Xrotation
                JOINT RightFingerBase
                {
                  OFFSET 0.0 0.0 0.0
                  CHANNELS 3 Zrotation Yrotation Xrotation
                  JOINT RightHandIndex1
                  {
                    OFFSET -0.622529984 -0.0 -0.0
                    CHANNELS 3 Zrotation Yrotation Xrotation
                    End Site
                    {
                      OFFSET -0.501900017 -0.0 -0.0
                    }
                  }
                }
                JOINT RThumb
                {
                  OFFSET 0.0 0.0 0.0
                  CHANNELS 3 Zrotation Yrotation Xrotation
                  End Site
                  {
                    OFFSET -0.509559989 -0.0 0.509559989
                  }
                }
              }
            }
          }
        }
      }
    }
  }
}
MOTION
Frames: 6
Frame Time: 0.0083333
0.0 18.097200394 0.0 -167.300109863 -54.836009979 167.328994751 0.0 -0.0 0.0 -17.52120018 0.886600554 -17.516298294 1.760499835 8.348198891 23.776802063 0.046500031 3.976499796 -7.312100887 1.55060029 7.859500408 22.288005829 0.0 -0.0 0.0 22.836297989 -8.652700424 1.788600087 -5.293098927 -13.706401825 42.074005127 1.557299972 -24.187904358 3.004499912 -11.000802994 -17.935503006 62.784191132 7.356699467 4.709400654 13.876300812 2.548799753 7.257999897 2.123399734 -2.66800046 3.366099834 -4.902999878 1.847399473 6.211900711 -5.887800694 -1.219500065 8.211997986 4.104599953 -0.373699903 4.081299305 2.446000099 0.0 -0.0 0.0 -89.488288879 6.835700035 18.366296768 15.318099976 -24.587402344 -3.357200623 0.0 0.0 -13.53030014 20.59969902 3.787000895 1.422100425 -7.125 0.0 0.0 -4.94960022 33.993396759 1.340599418 0.0 -0.0 0.0 75.675598145 5.290699005 8.580200195 -22.542102814 33.584300995 -6.883299828 0.0 0.0 -13.431099892 -22.781602859 -22.160100937 9.001799583 7.125 -0.0 0.0 6.405499935 -53.699798584 -1.374599814 
-0.110799789 18.127199173 -0.065900803 -167.927001953 -55.743003845 168.002990723 0.0 -0.0 0.0 -18.279497147 1.068599701 -17.036294937 1.671000242 8.144201279 23.152902603 0.049500007 3.463800192 -6.842299938 1.484900355 7.698698997 21.802497864 0.0 -0.0 0.0 22.288202286 -8.174900055 0.196399376 -5.968100548 -14.397398949 44.853595734 1.717300057 -25.199398041 2.891700029 -11.185297966 -18.024597168 63.381908417 6.799900055 4.868400097 13.538599968 2.415999413 7.37680006 2.025599957 -2.496600151 3.443500042 -4.864600182 1.377800107 6.155099869 -6.35160017 -0.784499824 8.147100449 4.506699562 -0.138199985 4.05150032 2.62130022 0.0 -0.0 0.0 -89.192596436 6.743597984 18.895399094 15.562503815 -24.923902512 -3.459501028 0.0 0.0 -11.69069767 18.596502304 3.211700201 1.079900026 -7.125 0.0 0.0 -6.530100822 33.316802979 1.880500555 0.0 -0.0 0.0 75.967903137 4.971199036 8.066498756 -22.182502747 33.182712555 -6.685504436 0.0 0.0 -12.90159893 -21.60090065 -20.230600357 7.796299934 7.125 -0.0 0.0 6.972800255 -51.471004486 -1.11590004 
-0.210500717 18.142400742 -0.126300812 -167.959594727 -56.45798111 167.99899292 0.0 -0.0 0.0 -18.566501617 1.391198397 -16.416297913 1.579800487 7.929801941 22.500900269 0.056100026 2.759199619 -6.347499847 1.472200155 7.667098999 21.707504272 0.0 -0.0 0.0 22.16809845 -7.618800163 -1.224399805 -6.635499954 -15.017103195 47.481899261 1.82850039 -26.232095718 3.540599585 -11.244103432 -18.052499771 63.571891785 6.43210125 4.850599289 13.38100338 2.431499004 7.309001923 1.901199579 -2.264199734 3.416199446 -4.964898586 1.141600013 6.413299561 -6.951099873 -0.439800024 8.492398262 5.631099701 0.073599994 4.223500252 3.091100216 0.0 -0.0 0.0 -88.998718262 6.838700771 18.741300583 15.795900345 -25.243095398 -3.558500528 0.0 0.0 -9.824299812 16.504701614 2.28859973 0.677899897 -7.125 0.0 0.0 -8.124299049 32.295505524 2.549099684 0.0 -0.0 0.0 76.116493225 4.748099804 8.564399719 -21.907600403 32.872406006 -6.535602093 0.0 0.0 -12.197400093 -20.673997879 -20.226297379 7.432898998 7.125 -0.0 0.0 7.890200615 -51.307304382 -1.232300162 
-0.311201096 18.155199051 -0.184000015 -168.495910645 -57.304004669 168.493972778 0.0 -0.0 0.0 -19.207700729 1.793198586 -15.920000076 1.494399786 7.722299099 21.873699188 0.061500017 1.932000399 -5.813301086 1.476099968 7.676900387 21.736999512 0.0 -0.0 0.0 21.626197815 -7.229400158 -2.719199657 -7.279900074 -15.563098907 49.924999237 1.808100462 -26.12550354 3.581200123 -11.275605202 -18.067302704 63.673286438 5.743199348 4.792899609 13.068901062 2.566200018 7.1252985 1.906799555 -1.694299817 3.345600128 -4.904200554 1.568899989 6.100099564 -5.936099052 -1.1954 8.088898659 4.573899746 -0.314699948 4.014200211 2.595800161 0.0 -0.0 0.0 -89.151306152 6.861501217 19.011501312 16.16960144 -25.750099182 -3.719301462 0.0 0.0 -8.556900024 14.618600845 1.070799947 0.279299974 -7.125 0.0 0.0 -9.495300293 31.003595352 3.287800074 0.0 -0.0 0.0 76.059608459 4.456698418 9.287501335 -21.989597321 32.965297699 -6.580201149 0.0 0.0 -11.622698784 -20.680299759 -19.838401794 7.299999714 7.125 -0.0 0.0 7.76129961 -50.906585693 -1.135398865 
-0.413700104 18.165100098 -0.246400833 -169.348602295 -58.349002838 169.280014038 0.0 -0.0 0.0 -20.053398132 2.028298855 -15.340498924 1.408700109 7.507199287 21.226900101 0.065100007 1.138900042 -5.380300522 1.495699763 7.725399971 21.88310051 0.0 -0.0 0.0 20.915302277 -7.140901089 -4.268799782 -7.898399353 -16.043994904 52.19581604 1.612799764 -25.730802536 5.137200832 -11.049704552 -17.959308624 62.9427948 5.018899918 4.758999348 12.791798592 2.559899569 6.972299576 1.902800202 -1.259899855 3.290999413 -4.852098942 0.826899827 6.119999886 -6.043900013 -0.684400082 8.146401405 4.651901245 -0.024100013 4.045200825 2.582200289 0.0 -0.0 0.0 -89.053390503 6.876801014 19.974599838 16.682201385 -26.436998367 -3.944801092 0.0 0.0 -7.54090023 13.059399605 0.092200011 0.021400003 -7.125 0.0 0.0 -10.611204147 29.98550415 3.948600769 0.0 -0.0 0.0 76.111923218 4.163397789 9.635501862 -22.005300522 32.983001709 -6.58869791 0.0 0.0 -11.448900223 -20.596597672 -18.454399109 6.784098625 7.125 -0.0 0.0 7.431799889 -49.455909729 -0.820599675 
-0.52409935 18.188800812 -0.316200256 -169.979904175 -59.620025635 170.43598938 0.0 -0.0 0.0 -20.802101135 1.947500229 -15.269403458 1.319499969 7.27519989 20.533298492 0.062700011 0.26849997 -4.833399773 1.463400006 7.645401478 21.642000198 0.0 -0.0 0.0 20.512395859 -6.805298328 -6.237699032 -8.484996796 -16.464597702 54.291404724 1.425000072 -24.94370079 5.931400776 -10.844700813 -17.85830307 62.27640152 4.175300121 4.612800121 11.486299515 2.529500008 6.616600513 1.807600141 -0.669000089 3.157899618 -4.343500137 0.900399923 6.26129961 -5.964600086 -1.130500197 8.359000206 4.816999912 -0.166300014 4.136600494 2.650700331 0.0 -0.0 0.0 -88.980705261 6.752696037 19.829998016 17.029699326 -26.896902084 -4.100800514 0.0 0.0 -5.761300087 11.582900047 -0.153999984 -0.031599995 -7.125 0.0 0.0 -11.729499817 29.717699051 4.456598759 0.0 -0.0 0.0 76.317672729 4.036500931 10.002397537 -21.819202423 32.772098541 -6.487700939 0.0 0.0 -11.02600193 -19.43359375 -18.551399231 6.404598236 7.125 -0.0 0.0 8.581599236 -49.376197815 -0.932199717 
